HIERARCHY
ROOT hip
{
  OFFSET 0 90.174 2.4664
  CHANNELS 6 Xposition Yposition Zposition Zrotation Xrotation Yrotation
  JOINT abdomen
  {
    OFFSET 0 -1.186 -1.5018
    CHANNELS 6 Xposition Yposition Zposition Zrotation Xrotation Yrotation
    JOINT abdomen2
    {
      OFFSET 0 9.964 0.2134
      CHANNELS 6 Xposition Yposition Zposition Zrotation Xrotation Yrotation
      JOINT chest
      {
        OFFSET 0 13.134 -3.2573
        CHANNELS 6 Xposition Yposition Zposition Zrotation Xrotation Yrotation
        JOINT neck
        {
          OFFSET 0 20.686 -1.6905
          CHANNELS 6 Xposition Yposition Zposition Zrotation Xrotation Yrotation
          JOINT head
          {
            OFFSET 0 7.238 -0.1237
            CHANNELS 6 Xposition Yposition Zposition Zrotation Xrotation Yrotation
            End Site
            {
              OFFSET 0 0 0
            }
          }
        }
        JOINT lCollar
        {
          OFFSET 1.7069 20.075 5.0056
          CHANNELS 6 Xposition Yposition Zposition Zrotation Xrotation Yrotation
          JOINT lShldr
          {
            OFFSET 13.6458 -0.047 -4.849
            CHANNELS 6 Xposition Yposition Zposition Zrotation Xrotation Yrotation
            JOINT lForeArm
            {
              OFFSET 28.3255 -0.9759 2.2888
              CHANNELS 6 Xposition Yposition Zposition Zrotation Xrotation Yrotation
              JOINT lHand
              {
                OFFSET 22.1583 -0.53 10.8316
                CHANNELS 6 Xposition Yposition Zposition Zrotation Xrotation Yrotation
                JOINT lThumb1
                {
                  OFFSET 0.786 0.112 2.5817
                  CHANNELS 6 Xposition Yposition Zposition Zrotation Xrotation Yrotation
                  JOINT lThumb2
                  {
                    OFFSET 0.3601 -0.878 4.2331
                    CHANNELS 6 Xposition Yposition Zposition Zrotation Xrotation Yrotation
                    JOINT lThumb2_End
                    {
                      OFFSET 1.8127 -1.216 2.2227
                      CHANNELS 6 Xposition Yposition Zposition Zrotation Xrotation Yrotation
                      End Site
                      {
                        OFFSET 0.0181 -0.0122 0.0222
                      }
                    }
                  }
                }
                JOINT lCarpal1
                {
                  OFFSET 0.9571 1.114 1.7695
                  CHANNELS 6 Xposition Yposition Zposition Zrotation Xrotation Yrotation
                  JOINT lIndex1
                  {
                    OFFSET 4.1246 0.487 4.1451
                    CHANNELS 6 Xposition Yposition Zposition Zrotation Xrotation Yrotation
                    JOINT lIndex2
                    {
                      OFFSET 3.4052 -1.454 2.7682
                      CHANNELS 6 Xposition Yposition Zposition Zrotation Xrotation Yrotation
                      JOINT lIndex2_End
                      {
                        OFFSET 1.4531 -1.795 1.2713
                        CHANNELS 6 Xposition Yposition Zposition Zrotation Xrotation Yrotation
                        End Site
                        {
                          OFFSET 0.0145 -0.0179 0.0127
                        }
                      }
                    }
                  }
                  JOINT lMid1
                  {
                    OFFSET 5.6954 0.21 2.1184
                    CHANNELS 6 Xposition Yposition Zposition Zrotation Xrotation Yrotation
                    JOINT lMid2
                    {
                      OFFSET 3.9766 -1.54 2.3863
                      CHANNELS 6 Xposition Yposition Zposition Zrotation Xrotation Yrotation
                      JOINT lMid2_End
                      {
                        OFFSET 1.4042 -1.926 1.125
                        CHANNELS 6 Xposition Yposition Zposition Zrotation Xrotation Yrotation
                        End Site
                        {
                          OFFSET 0.014 -0.0193 0.0113
                        }
                      }
                    }
                  }
                }
                JOINT lCarpal2
                {
                  OFFSET 2.0956 0.66 -0.3894
                  CHANNELS 6 Xposition Yposition Zposition Zrotation Xrotation Yrotation
                  JOINT lRing1
                  {
                    OFFSET 5.0395 -0.09 2.4971
                    CHANNELS 6 Xposition Yposition Zposition Zrotation Xrotation Yrotation
                    JOINT lRing2
                    {
                      OFFSET 3.7921 -1.552 1.4806
                      CHANNELS 6 Xposition Yposition Zposition Zrotation Xrotation Yrotation
                      JOINT lRing2_End
                      {
                        OFFSET 1.4655 -1.808 0.9609
                        CHANNELS 6 Xposition Yposition Zposition Zrotation Xrotation Yrotation
                        End Site
                        {
                          OFFSET 0.0147 -0.0181 0.0096
                        }
                      }
                    }
                  }
                  JOINT lPinky1
                  {
                    OFFSET 4.9141 -1.269 0.3591
                    CHANNELS 6 Xposition Yposition Zposition Zrotation Xrotation Yrotation
                    JOINT lPinky2
                    {
                      OFFSET 3.1477 -1.685 0.8462
                      CHANNELS 6 Xposition Yposition Zposition Zrotation Xrotation Yrotation
                      JOINT lPinky2_End
                      {
                        OFFSET 0.8055 -1.585 0.7955
                        CHANNELS 6 Xposition Yposition Zposition Zrotation Xrotation Yrotation
                        End Site
                        {
                          OFFSET 0.0081 -0.0158 0.008
                        }
                      }
                    }
                  }
                }
              }
            }
          }
        }
        JOINT rCollar
        {
          OFFSET -1.7069 20.075 5.0056
          CHANNELS 6 Xposition Yposition Zposition Zrotation Xrotation Yrotation
          JOINT rShldr
          {
            OFFSET -13.6458 -0.047 -4.849
            CHANNELS 6 Xposition Yposition Zposition Zrotation Xrotation Yrotation
            JOINT rForeArm
            {
              OFFSET -28.3255 -0.9759 2.2888
              CHANNELS 6 Xposition Yposition Zposition Zrotation Xrotation Yrotation
              JOINT rHand
              {
                OFFSET -22.1583 -0.53 10.8316
                CHANNELS 6 Xposition Yposition Zposition Zrotation Xrotation Yrotation
                JOINT rThumb1
                {
                  OFFSET -0.786 0.112 2.5817
                  CHANNELS 6 Xposition Yposition Zposition Zrotation Xrotation Yrotation
                  JOINT rThumb2
                  {
                    OFFSET -0.3601 -0.878 4.2331
                    CHANNELS 6 Xposition Yposition Zposition Zrotation Xrotation Yrotation
                    JOINT rThumb2_End
                    {
                      OFFSET -1.8127 -1.216 2.2227
                      CHANNELS 6 Xposition Yposition Zposition Zrotation Xrotation Yrotation
                      End Site
                      {
                        OFFSET -0.0181 -0.0122 0.0222
                      }
                    }
                  }
                }
                JOINT rCarpal1
                {
                  OFFSET -0.9571 1.114 1.7695
                  CHANNELS 6 Xposition Yposition Zposition Zrotation Xrotation Yrotation
                  JOINT rIndex1
                  {
                    OFFSET -4.1246 0.487 4.1451
                    CHANNELS 6 Xposition Yposition Zposition Zrotation Xrotation Yrotation
                    JOINT rIndex2
                    {
                      OFFSET -3.4052 -1.454 2.7682
                      CHANNELS 6 Xposition Yposition Zposition Zrotation Xrotation Yrotation
                      JOINT rIndex2_End
                      {
                        OFFSET -1.4531 -1.795 1.2713
                        CHANNELS 6 Xposition Yposition Zposition Zrotation Xrotation Yrotation
                        End Site
                        {
                          OFFSET -0.0145 -0.018 0.0127
                        }
                      }
                    }
                  }
                  JOINT rMid1
                  {
                    OFFSET -5.6954 0.21 2.1184
                    CHANNELS 6 Xposition Yposition Zposition Zrotation Xrotation Yrotation
                    JOINT rMid2
                    {
                      OFFSET -3.9766 -1.54 2.3863
                      CHANNELS 6 Xposition Yposition Zposition Zrotation Xrotation Yrotation
                      JOINT rMid2_End
                      {
                        OFFSET -1.4042 -1.926 1.125
                        CHANNELS 6 Xposition Yposition Zposition Zrotation Xrotation Yrotation
                        End Site
                        {
                          OFFSET -0.014 -0.0193 0.0113
                        }
                      }
                    }
                  }
                }
                JOINT rCarpal2
                {
                  OFFSET -2.0956 0.66 -0.3894
                  CHANNELS 6 Xposition Yposition Zposition Zrotation Xrotation Yrotation
                  JOINT rRing1
                  {
                    OFFSET -5.0395 -0.09 2.4971
                    CHANNELS 6 Xposition Yposition Zposition Zrotation Xrotation Yrotation
                    JOINT rRing2
                    {
                      OFFSET -3.7921 -1.552 1.4806
                      CHANNELS 6 Xposition Yposition Zposition Zrotation Xrotation Yrotation
                      JOINT rRing2_End
                      {
                        OFFSET -1.4655 -1.808 0.9609
                        CHANNELS 6 Xposition Yposition Zposition Zrotation Xrotation Yrotation
                        End Site
                        {
                          OFFSET -0.0147 -0.0181 0.0096
                        }
                      }
                    }
                  }
                  JOINT rPinky1
                  {
                    OFFSET -4.9141 -1.269 0.3592
                    CHANNELS 6 Xposition Yposition Zposition Zrotation Xrotation Yrotation
                    JOINT rPinky2
                    {
                      OFFSET -3.1477 -1.685 0.8462
                      CHANNELS 6 Xposition Yposition Zposition Zrotation Xrotation Yrotation
                      JOINT rPinky2_End
                      {
                        OFFSET -0.8055 -1.585 0.7955
                        CHANNELS 6 Xposition Yposition Zposition Zrotation Xrotation Yrotation
                        End Site
                        {
                          OFFSET -0.0081 -0.0158 0.008
                        }
                      }
                    }
                  }
                }
              }
            }
          }
        }
      }
    }
  }
  JOINT lThigh
  {
    OFFSET 8.367 -8.2066 0.5982
    CHANNELS 6 Xposition Yposition Zposition Zrotation Xrotation Yrotation
    JOINT lShin
    {
      OFFSET 2.1923 -43.463 -0.4932
      CHANNELS 6 Xposition Yposition Zposition Zrotation Xrotation Yrotation
      JOINT lFoot
      {
        OFFSET 0.7333 -45.8593 -2.6451
        CHANNELS 6 Xposition Yposition Zposition Zrotation Xrotation Yrotation
        End Site
        {
          OFFSET 2.6618 -4.2699 12.3931
        }
      }
    }
  }
  JOINT rThigh
  {
    OFFSET -8.367 -8.2066 0.5982
    CHANNELS 6 Xposition Yposition Zposition Zrotation Xrotation Yrotation
    JOINT rShin
    {
      OFFSET -2.1923 -43.463 -0.4931
      CHANNELS 6 Xposition Yposition Zposition Zrotation Xrotation Yrotation
      JOINT rFoot
      {
        OFFSET -0.7333 -45.8593 -2.6451
        CHANNELS 6 Xposition Yposition Zposition Zrotation Xrotation Yrotation
        End Site
        {
          OFFSET -2.6618 -4.2699 12.3931
        }
      }
    }
  }
}
MOTION
Frames:	4
Frame Time:	0.0333333
0 90.174 2.4664 0 0 -0 0 -1.186 -1.5018 0 0 -0 0 9.964 0.2134 0 0 -0 0 13.134 -3.2573 0 0 -0 0 20.686 -1.6905 0 0 -0 0 7.238 -0.1237 0 0 -0 1.7069 20.075 5.0056 0 0 -0 13.6458 -0.047 -4.849 1.66051 0.0835086 5.75766 28.3255 -0.9759 2.2888 -0.0175111 0.895433 15.7816 22.1583 -0.53 10.8316 7.95139e-016 -1.98785e-016 -0 0.786 0.112 2.5817 5.46658e-016 -3.97569e-016 -0 0.3601 -0.878 4.2331 5.96354e-016 0 -0 1.8127 -1.216 2.2227 3.97569e-016 1.98785e-016 9.54166e-015 0.9571 1.114 1.7695 1.49089e-016 -3.97569e-016 -0 4.1246 0.487 4.1451 6.4605e-016 0 3.18055e-015 3.4052 -1.454 2.7682 5.96354e-016 0 3.18055e-015 1.4531 -1.795 1.2713 8.94531e-016 -1.98785e-016 6.36111e-015 5.6954 0.21 2.1184 6.4605e-016 0 3.18055e-015 3.9766 -1.54 2.3863 5.96354e-016 0 3.18055e-015 1.4042 -1.926 1.125 8.94531e-016 -1.98785e-016 6.36111e-015 2.0956 0.66 -0.3894 1.49089e-016 -3.97569e-016 -0 5.0395 -0.09 2.4971 6.4605e-016 0 3.18055e-015 3.7921 -1.552 1.4806 5.96354e-016 0 3.18055e-015 1.4655 -1.808 0.9609 8.94531e-016 -1.98785e-016 6.36111e-015 4.9141 -1.269 0.3591 6.4605e-016 0 3.18055e-015 3.1477 -1.685 0.8462 5.96354e-016 0 3.18055e-015 0.8055 -1.585 0.7955 8.94531e-016 -1.98785e-016 6.36111e-015 -1.7069 20.075 5.0056 0 0 -0 -13.6458 -0.047 -4.849 -1.4496 0.0636048 -5.0245 -28.3255 -0.9759 2.2888 -1.74811 1.20616 -16.8394 -22.1583 -0.53 10.8316 -1.19271e-015 1.98785e-016 -3.18055e-015 -0.786 0.112 2.5817 -3.97569e-016 1.98785e-016 -3.18055e-015 -0.3601 -0.878 4.2331 -2.98177e-016 1.98785e-016 -3.18055e-015 -1.8127 -1.216 2.2227 -2.98177e-016 3.97569e-016 -0 -0.9571 1.114 1.7695 4.96962e-016 0 -6.36111e-015 -4.1246 0.487 4.1451 -9.93923e-017 3.97569e-016 -0 -3.4052 -1.454 2.7682 -8.94531e-016 5.96354e-016 -0 -1.4531 -1.795 1.2713 -3.97569e-016 3.97569e-016 -0 -5.6954 0.21 2.1184 -9.93923e-017 3.97569e-016 -0 -3.9766 -1.54 2.3863 -8.94531e-016 5.96354e-016 -0 -1.4042 -1.926 1.125 -3.97569e-016 3.97569e-016 -0 -2.0956 0.66 -0.3894 4.96962e-016 0 -6.36111e-015 -5.0395 -0.09 2.4971 -9.93923e-017 3.97569e-016 -0 -3.7921 -1.552 1.4806 -8.94531e-016 5.96354e-016 -0 -1.4655 -1.808 0.9609 -3.97569e-016 3.97569e-016 -0 -4.9141 -1.269 0.3592 -9.93923e-017 3.97569e-016 -0 -3.1477 -1.685 0.8462 -8.94531e-016 5.96354e-016 -0 -0.8055 -1.585 0.7955 -3.97569e-016 3.97569e-016 -0 8.367 -8.2066 0.5982 -4.66115 -1.03232 0.120763 2.1923 -43.463 -0.4932 0.00990601 1.55097 0.177175 0.7333 -45.8593 -2.6451 4.65196 -0.54114 -0.255042 -8.367 -8.2066 0.5982 4.66115 -1.03222 -0.120763 -2.1923 -43.463 -0.4931 -0.00990459 1.5509 -0.177176 -0.7333 -45.8593 -2.6451 -4.65196 -0.541171 0.255041 
-34.3431 47.7028 16.8655 -31.1112 0.00053458 71.8482 0 -1.186 -1.5018 -0.250627 7.50845 -0.225029 0 9.964 0.2134 -0.477438 15.0178 -0.422104 0 13.134 -3.2573 -0.477437 15.0178 -0.422123 0 20.686 -1.6905 -15.7911 -36.2211 6.6788 7.10543e-015 7.238 -0.1237 -6.30518e-006 4.40107 7.07138e-007 1.7069 20.075 5.0056 -7.22981 -4.34596 23.5882 13.6458 -0.047 -4.849 -75.2076 6.13 -37.9311 28.3255 -0.9759 2.2888 -35.8243 30.2044 -45.2794 22.1583 -0.53 10.8316 -23.2431 -27.2977 6.12112 0.786 0.112 2.5817 -2.13819e-007 2.77901e-007 -9.94076e-006 0.3601 -0.878 4.2331 3.18055e-015 -9.93923e-016 -0 1.8127 -1.216 2.2227 -2.13616e-006 -1.80492e-006 -5.0336e-006 0.9571 1.114 1.7695 3.18055e-015 -7.95139e-016 3.97569e-016 4.1246 0.487 4.1451 -2.13819e-007 2.77901e-007 -9.94076e-006 3.4052 -1.454 2.7682 6.36111e-015 -1.19271e-015 1.98785e-015 1.4531 -1.795 1.2713 -2.13616e-006 -1.80492e-006 -5.0336e-006 5.6954 0.21 2.1184 -2.13819e-007 2.77901e-007 -9.94076e-006 3.9766 -1.54 2.3863 6.36111e-015 -1.19271e-015 1.98785e-015 1.4042 -1.926 1.125 -2.13616e-006 -1.80492e-006 -5.0336e-006 2.0956 0.66 -0.3894 3.18055e-015 -7.95139e-016 3.97569e-016 5.0395 -0.09 2.4971 -2.13819e-007 2.77901e-007 -9.94076e-006 3.7921 -1.552 1.4806 6.36111e-015 -1.19271e-015 1.98785e-015 1.4655 -1.808 0.9609 -2.13616e-006 -1.80492e-006 -5.0336e-006 4.9141 -1.269 0.3591 -2.13819e-007 2.77901e-007 -9.94076e-006 3.1477 -1.685 0.8462 6.36111e-015 -1.19271e-015 1.98785e-015 0.8055 -1.585 0.7955 -2.13616e-006 -1.80492e-006 -5.0336e-006 -1.7069 20.075 5.0056 -29.7469 -1.54485 5.55615 -13.6458 -0.047 -4.849 -9.54582 -28.7876 50.3816 -28.3255 -0.9759 2.2888 60.6897 -73.2976 46.3784 -22.1583 -0.53 10.8316 -16.9313 -1.27203 -4.59263 -0.786 0.112 2.5817 -1.18595e-006 4.22574e-006 2.72137e-006 -0.3601 -0.878 4.2331 -2.31857e-006 1.16983e-006 -1.91233e-007 -1.8127 -1.216 2.2227 -3.59128e-006 3.05312e-006 3.35098e-007 -0.9571 1.114 1.7695 3.18055e-015 0 -6.36111e-015 -4.1246 0.487 4.1451 -1.18595e-006 4.22574e-006 2.72137e-006 -3.4052 -1.454 2.7682 -2.31857e-006 1.16983e-006 -1.91233e-007 -1.4531 -1.795 1.2713 -3.59128e-006 3.05312e-006 3.35098e-007 -5.6954 0.21 2.1184 -1.18595e-006 4.22574e-006 2.72137e-006 -3.9766 -1.54 2.3863 -2.31857e-006 1.16983e-006 -1.91233e-007 -1.4042 -1.926 1.125 -3.59128e-006 3.05312e-006 3.35098e-007 -2.0956 0.66 -0.3894 3.18055e-015 0 -6.36111e-015 -5.0395 -0.09 2.4971 -1.18595e-006 4.22574e-006 2.72137e-006 -3.7921 -1.552 1.4806 -2.31857e-006 1.16983e-006 -1.91233e-007 -1.4655 -1.808 0.9609 -3.59128e-006 3.05312e-006 3.35098e-007 -4.9141 -1.269 0.3592 -1.18595e-006 4.22574e-006 2.72137e-006 -3.1477 -1.685 0.8462 -2.31857e-006 1.16983e-006 -1.91233e-007 -0.8055 -1.585 0.7955 -3.59128e-006 3.05312e-006 3.35098e-007 8.367 -8.2066 0.5982 -5.04688 -64.7169 5.46471 2.1923 -43.463 -0.4932 162.28 82.0832 -161.379 0.7333 -45.8593 -2.6451 17.499 47.5718 1.1101 -8.367 -8.2066 0.5982 1.48232 -68.6095 -5.59492 -2.1923 -43.463 -0.4931 -165.472 79.5407 164.215 -0.7333 -45.8593 -2.6451 0.421337 49.6925 -7.82335 
-51.7563 27.9997 23.6451 -45.1112 -0.000605537 104.18 0 -1.186 -1.5018 -0.299528 10.8413 -0.443966 0 9.964 0.2134 -0.526226 21.6845 -0.852557 -1.77636e-015 13.134 -3.2573 -0.526246 21.6845 -0.852541 0 20.686 -1.6905 -18.373 -51.7711 12.9301 -1.77636e-015 7.238 -0.1237 -1.2431e-005 6.59089 1.02924e-005 1.7069 20.075 5.0056 -9.33332 -5.65763 34.1191 13.6458 -0.047 -4.849 -107.135 5.12916 -57.5773 28.3255 -0.9759 2.2888 -45.2728 17.8296 -66.4649 22.1583 -0.53 10.8316 -31.3106 -40.135 8.76926 0.786 0.112 2.5817 1.59028e-015 0 -0 0.3601 -0.878 4.2331 0 0 -1.59028e-015 1.8127 -1.216 2.2227 0 0 -1.59028e-015 0.9571 1.114 1.7695 1.59028e-015 0 -0 4.1246 0.487 4.1451 -5.56597e-015 0 3.18055e-015 3.4052 -1.454 2.7682 -3.97569e-015 -3.18055e-015 -1.59028e-015 1.4531 -1.795 1.2713 3.97569e-015 0 -1.59028e-015 5.6954 0.21 2.1184 -5.56597e-015 0 3.18055e-015 3.9766 -1.54 2.3863 -3.97569e-015 -3.18055e-015 -1.59028e-015 1.4042 -1.926 1.125 3.97569e-015 0 -1.59028e-015 2.0956 0.66 -0.3894 1.59028e-015 0 -0 5.0395 -0.09 2.4971 -5.56597e-015 0 3.18055e-015 3.7921 -1.552 1.4806 -3.97569e-015 -3.18055e-015 -1.59028e-015 1.4655 -1.808 0.9609 3.97569e-015 0 -1.59028e-015 4.9141 -1.269 0.3591 -5.56597e-015 0 3.18055e-015 3.1477 -1.685 0.8462 -3.97569e-015 -3.18055e-015 -1.59028e-015 0.8055 -1.585 0.7955 3.97569e-015 0 -1.59028e-015 -1.7069 20.075 5.0056 -42.8206 -2.19873 7.85804 -13.6458 -0.047 -4.849 -1.96076 -20.367 74.4665 -28.3255 -0.9759 2.2888 139.359 -52.157 119.326 -22.1583 -0.53 10.8316 -24.5332 -1.66959 -7.25273 -0.786 0.112 2.5817 1.98785e-015 -3.18055e-015 3.18055e-015 -0.3601 -0.878 4.2331 -1.59028e-015 -3.18055e-015 4.77083e-015 -1.8127 -1.216 2.2227 7.95139e-016 3.18055e-015 6.36111e-015 -0.9571 1.114 1.7695 1.19271e-015 0 -1.59028e-015 -4.1246 0.487 4.1451 1.98785e-015 -3.18055e-015 5.1684e-015 -3.4052 -1.454 2.7682 3.97569e-016 0 2.78299e-015 -1.4531 -1.795 1.2713 -1.98785e-015 3.18055e-015 3.18055e-015 -5.6954 0.21 2.1184 1.98785e-015 -3.18055e-015 5.1684e-015 -3.9766 -1.54 2.3863 3.97569e-016 0 2.78299e-015 -1.4042 -1.926 1.125 -1.98785e-015 3.18055e-015 3.18055e-015 -2.0956 0.66 -0.3894 1.19271e-015 0 -1.59028e-015 -5.0395 -0.09 2.4971 1.98785e-015 -3.18055e-015 5.1684e-015 -3.7921 -1.552 1.4806 3.97569e-016 0 2.78299e-015 -1.4655 -1.808 0.9609 -1.98785e-015 3.18055e-015 3.18055e-015 -4.9141 -1.269 0.3592 1.98785e-015 -3.18055e-015 5.1684e-015 -3.1477 -1.685 0.8462 3.97569e-016 0 2.78299e-015 -0.8055 -1.585 0.7955 -1.98785e-015 3.18055e-015 3.18055e-015 8.367 -8.2066 0.5982 164.133 -82.752 -176.939 2.1923 -43.463 -0.4932 172.583 36.9739 -166.31 0.7333 -45.8593 -2.6451 19.0522 72.0616 6.32076 -8.367 -8.2066 0.5982 -175.162 -77.2722 170.445 -2.1923 -43.463 -0.4931 -171.805 36.417 164.254 -0.7333 -45.8593 -2.6451 30.483 75.209 -38.6326 
-47.8171 32.2977 22.098 -42.0002 -0.000280596 96.995 0 -1.186 -1.5018 -0.292776 10.0092 -0.38179 -1.77636e-015 9.964 0.2134 -0.529019 20.0201 -0.727773 3.55271e-015 13.134 -3.2573 -0.529002 20.02 -0.727802 -3.55271e-015 20.686 -1.6905 -17.9821 -47.6515 11.5102 -1.77636e-015 7.238 -0.1237 -5.3984e-006 6.56949 3.66347e-006 1.7069 20.075 5.0056 -8.83834 -5.34108 31.3933 13.6458 -0.047 -4.849 -100.074 5.62102 -53.2473 28.3255 -0.9759 2.2888 -42.4764 20.967 -62.6898 22.1583 -0.53 10.8316 -29.8895 -36.8255 8.15345 0.786 0.112 2.5817 -5.61692e-007 1.77089e-007 5.62435e-007 0.3601 -0.878 4.2331 -5.12422e-008 -2.93271e-007 2.79553e-006 1.8127 -1.216 2.2227 1.26883e-006 5.00766e-007 5.80396e-007 0.9571 1.114 1.7695 -7.95139e-015 0 -3.18055e-015 4.1246 0.487 4.1451 -5.61692e-007 1.77089e-007 5.62435e-007 3.4052 -1.454 2.7682 -5.12422e-008 -2.93271e-007 2.79553e-006 1.4531 -1.795 1.2713 1.26883e-006 5.00766e-007 5.80396e-007 5.6954 0.21 2.1184 -5.61692e-007 1.77089e-007 5.62435e-007 3.9766 -1.54 2.3863 -5.12422e-008 -2.93271e-007 2.79553e-006 1.4042 -1.926 1.125 1.26883e-006 5.00766e-007 5.80396e-007 2.0956 0.66 -0.3894 -7.95139e-015 0 -3.18055e-015 5.0395 -0.09 2.4971 -5.61692e-007 1.77089e-007 5.62435e-007 3.7921 -1.552 1.4806 -5.12422e-008 -2.93271e-007 2.79553e-006 1.4655 -1.808 0.9609 1.26883e-006 5.00766e-007 5.80396e-007 4.9141 -1.269 0.3591 -5.61692e-007 1.77089e-007 5.62435e-007 3.1477 -1.685 0.8462 -5.12422e-008 -2.93271e-007 2.79553e-006 0.8055 -1.585 0.7955 1.26883e-006 5.00766e-007 5.80396e-007 -1.7069 20.075 5.0056 -39.4401 -1.98845 6.89827 -13.6458 -0.047 -4.849 -3.14986 -23.2417 70.1822 -28.3255 -0.9759 2.2888 130.406 -58.4708 111.786 -22.1583 -0.53 10.8316 -23.2904 -1.75314 -6.71113 -0.786 0.112 2.5817 -2.54833e-006 4.14018e-006 -4.13188e-006 -0.3601 -0.878 4.2331 2.91286e-006 -4.50398e-006 -4.61842e-006 -1.8127 -1.216 2.2227 -6.6885e-006 1.59185e-006 -1.69384e-006 -0.9571 1.114 1.7695 1.98785e-016 0 2.98177e-016 -4.1246 0.487 4.1451 -2.54833e-006 4.14018e-006 -4.13188e-006 -3.4052 -1.454 2.7682 2.91286e-006 -4.50398e-006 -4.61842e-006 -1.4531 -1.795 1.2713 -6.6885e-006 1.59185e-006 -1.69384e-006 -5.6954 0.21 2.1184 -2.54833e-006 4.14018e-006 -4.13188e-006 -3.9766 -1.54 2.3863 2.91286e-006 -4.50398e-006 -4.61842e-006 -1.4042 -1.926 1.125 -6.6885e-006 1.59185e-006 -1.69384e-006 -2.0956 0.66 -0.3894 1.98785e-016 0 2.98177e-016 -5.0395 -0.09 2.4971 -2.54833e-006 4.14018e-006 -4.13188e-006 -3.7921 -1.552 1.4806 2.91286e-006 -4.50398e-006 -4.61842e-006 -1.4655 -1.808 0.9609 -6.6885e-006 1.59185e-006 -1.69384e-006 -4.9141 -1.269 0.3592 -2.54833e-006 4.14018e-006 -4.13188e-006 -3.1477 -1.685 0.8462 2.91286e-006 -4.50398e-006 -4.61842e-006 -0.8055 -1.585 0.7955 -6.6885e-006 1.59185e-006 -1.69384e-006 8.367 -8.2066 0.5982 47.1822 -88.8041 62.951 2.1923 -43.463 -0.4932 172.32 47.0682 -168.116 0.7333 -45.8593 -2.6451 20.0805 65.7958 3.75833 -8.367 -8.2066 0.5982 -168.24 -85.764 -179.577 -2.1923 -43.463 -0.4931 -171.779 46.0421 166.643 -0.7333 -45.8593 -2.6451 14.8942 69.4238 -22.8913 
